<?xml version="1.0" encoding="UTF-8"?>
<svg xmlns="http://www.w3.org/2000/svg" xmlns:xlink="http://www.w3.org/1999/xlink" width="50px" height="50px" viewBox="0 0 50 50" version="1.1">
<g id="surface1">
<path style=" stroke:none;fill-rule:evenodd;fill:rgb(0%,0%,0%);fill-opacity:1;" d="M 25 0 C 38.796875 0 50 11.203125 50 25 C 50 38.796875 38.796875 50 25 50 C 11.203125 50 0 38.796875 0 25 C 0 11.203125 11.203125 0 25 0 Z M 25 9.375 C 20.757812 9.375 20.222656 9.394531 18.558594 9.46875 C 16.894531 9.546875 15.757812 9.808594 14.765625 10.195312 C 13.738281 10.59375 12.867188 11.128906 11.996094 11.996094 C 11.128906 12.867188 10.59375 13.738281 10.195312 14.765625 C 9.808594 15.757812 9.542969 16.894531 9.46875 18.558594 C 9.394531 20.222656 9.375 20.757812 9.375 25 C 9.375 29.242188 9.394531 29.777344 9.46875 31.441406 C 9.546875 33.105469 9.808594 34.242188 10.195312 35.234375 C 10.59375 36.261719 11.128906 37.132812 11.996094 38.003906 C 12.867188 38.871094 13.738281 39.40625 14.765625 39.804688 C 15.757812 40.191406 16.894531 40.453125 18.558594 40.53125 C 20.222656 40.605469 20.757812 40.625 25 40.625 C 29.242188 40.625 29.777344 40.605469 31.441406 40.53125 C 33.105469 40.453125 34.242188 40.191406 35.234375 39.804688 C 36.261719 39.40625 37.132812 38.871094 38.003906 38.003906 C 38.871094 37.132812 39.40625 36.261719 39.804688 35.234375 C 40.191406 34.242188 40.453125 33.105469 40.53125 31.441406 C 40.605469 29.777344 40.625 29.242188 40.625 25 C 40.625 20.757812 40.605469 20.222656 40.53125 18.558594 C 40.453125 16.894531 40.191406 15.757812 39.804688 14.765625 C 39.40625 13.738281 38.871094 12.867188 38.003906 11.996094 C 37.132812 11.128906 36.261719 10.59375 35.234375 10.195312 C 34.242188 9.808594 33.105469 9.546875 31.441406 9.46875 C 29.777344 9.394531 29.242188 9.375 25 9.375 Z M 25 12.191406 C 29.171875 12.191406 29.667969 12.207031 31.3125 12.28125 C 32.835938 12.351562 33.664062 12.605469 34.214844 12.820312 C 34.945312 13.101562 35.464844 13.441406 36.011719 13.988281 C 36.558594 14.535156 36.898438 15.054688 37.179688 15.785156 C 37.394531 16.335938 37.648438 17.164062 37.71875 18.6875 C 37.792969 20.332031 37.808594 20.828125 37.808594 25 C 37.808594 29.171875 37.792969 29.667969 37.71875 31.3125 C 37.648438 32.835938 37.394531 33.664062 37.179688 34.214844 C 36.898438 34.945312 36.558594 35.464844 36.011719 36.011719 C 35.464844 36.558594 34.945312 36.898438 34.214844 37.179688 C 33.664062 37.394531 32.835938 37.648438 31.3125 37.71875 C 29.667969 37.792969 29.171875 37.808594 25 37.808594 C 20.828125 37.808594 20.332031 37.792969 18.6875 37.71875 C 17.164062 37.648438 16.335938 37.394531 15.785156 37.179688 C 15.054688 36.898438 14.535156 36.558594 13.988281 36.011719 C 13.441406 35.464844 13.101562 34.945312 12.820312 34.214844 C 12.605469 33.664062 12.351562 32.835938 12.28125 31.3125 C 12.207031 29.667969 12.191406 29.171875 12.191406 25 C 12.191406 20.828125 12.207031 20.332031 12.28125 18.6875 C 12.351562 17.164062 12.605469 16.335938 12.820312 15.785156 C 13.101562 15.054688 13.441406 14.535156 13.988281 13.988281 C 14.535156 13.441406 15.054688 13.101562 15.785156 12.820312 C 16.335938 12.605469 17.164062 12.351562 18.6875 12.28125 C 20.332031 12.207031 20.828125 12.191406 25 12.191406 Z M 25 16.976562 C 20.570312 16.976562 16.976562 20.570312 16.976562 25 C 16.976562 29.429688 20.570312 33.023438 25 33.023438 C 29.429688 33.023438 33.023438 29.429688 33.023438 25 C 33.023438 20.570312 29.429688 16.976562 25 16.976562 Z M 25 30.207031 C 22.125 30.207031 19.792969 27.875 19.792969 25 C 19.792969 22.125 22.125 19.792969 25 19.792969 C 27.875 19.792969 30.207031 22.125 30.207031 25 C 30.207031 27.875 27.875 30.207031 25 30.207031 Z M 35.214844 16.660156 C 35.214844 17.695312 34.375 18.535156 33.339844 18.535156 C 32.304688 18.535156 31.464844 17.695312 31.464844 16.660156 C 31.464844 15.625 32.304688 14.785156 33.339844 14.785156 C 34.375 14.785156 35.214844 15.625 35.214844 16.660156 Z M 35.214844 16.660156 "/>
</g>
</svg>
